<?xml version="1.0" encoding="UTF-8" standalone="no"?>
<svg
   width="1700pt"
   height="892.01251pt"
   viewBox="0 0 1700 892.01251"
   version="1.1"
   id="svg14352"
   sodipodi:docname="bg.svg"
   inkscape:version="1.2.2 (b0a8486541, 2022-12-01)"
   xmlns:inkscape="http://www.inkscape.org/namespaces/inkscape"
   xmlns:sodipodi="http://sodipodi.sourceforge.net/DTD/sodipodi-0.dtd"
   xmlns:xlink="http://www.w3.org/1999/xlink"
   xmlns="http://www.w3.org/2000/svg"
   xmlns:svg="http://www.w3.org/2000/svg">
  <defs
     id="defs14356">
    <linearGradient
       inkscape:collect="always"
       id="linearGradient2320">
      <stop
         style="stop-color:#eeeef9;stop-opacity:1;"
         offset="0"
         id="stop2316" />
      <stop
         style="stop-color:#f7f7fe;stop-opacity:1;"
         offset="0.53196424"
         id="stop2324" />
      <stop
         style="stop-color:#dbecf5;stop-opacity:0.15918367;"
         offset="1"
         id="stop2318" />
    </linearGradient>
    <linearGradient
       inkscape:collect="always"
       id="linearGradient2235">
      <stop
         style="stop-color:#e4e4e4;stop-opacity:1;"
         offset="0"
         id="stop2231" />
      <stop
         style="stop-color:#ffffff;stop-opacity:1;"
         offset="1"
         id="stop2233" />
    </linearGradient>
    <linearGradient
       id="linearGradient16551"
       inkscape:swatch="solid">
      <stop
         style="stop-color:#176585;stop-opacity:1;"
         offset="0"
         id="stop16549" />
    </linearGradient>
    <linearGradient
       inkscape:collect="always"
       xlink:href="#linearGradient2235"
       id="linearGradient18615"
       x1="8276.8818"
       y1="2748.1458"
       x2="10096.747"
       y2="7980.2554"
       gradientUnits="userSpaceOnUse" />
    <clipPath
       clipPathUnits="userSpaceOnUse"
       id="clipPath1053">
      <rect
         style="fill:#ffffff;stroke-width:7.5"
         id="rect1055"
         width="17000"
         height="8920.126"
         x="0"
         y="-8920.125"
         transform="scale(1,-1)" />
    </clipPath>
    <linearGradient
       inkscape:collect="always"
       xlink:href="#linearGradient2320"
       id="linearGradient2322"
       x1="8486.8672"
       y1="8364.8008"
       x2="7695.0498"
       y2="1.9999999e-05"
       gradientUnits="userSpaceOnUse" />
  </defs>
  <sodipodi:namedview
     id="namedview14354"
     pagecolor="#ffffff"
     bordercolor="#000000"
     borderopacity="0.25"
     inkscape:showpageshadow="2"
     inkscape:pageopacity="0.0"
     inkscape:pagecheckerboard="0"
     inkscape:deskcolor="#d1d1d1"
     inkscape:document-units="pt"
     showgrid="false"
     inkscape:zoom="0.42860341"
     inkscape:cx="1091.9185"
     inkscape:cy="501.62923"
     inkscape:window-width="1920"
     inkscape:window-height="994"
     inkscape:window-x="0"
     inkscape:window-y="0"
     inkscape:window-maximized="1"
     inkscape:current-layer="g13082" />
  <g
     transform="matrix(0.1,0,0,-0.1,0,973.01249)"
     fill="#176585"
     stroke="none"
     id="g13082"
     style="fill:url(#linearGradient18615);fill-opacity:1">
    <path
       d="M 0,6492 V 2385 l 72,-18 c 40,-10 85,-21 101,-24 l 27,-5 v 258 259 l -40,40 c -21,22 -39,44 -40,48 0,4 20,16 44,27 l 45,19 188,17 c 103,9 211,19 238,21 28,2 60,6 73,9 l 22,4 v 38 c 0,21 -4,42 -9,48 -4,5 -13,24 -19,41 l -11,33 27,32 c 15,18 33,39 39,46 l 13,13 2,172 2,172 6,-180 6,-180 21,-44 21,-45 -29,-35 -29,-36 v -25 c 0,-14 4,-30 8,-37 4,-6 30,-16 57,-21 60,-12 202,-43 305,-67 41,-9 100,-23 131,-30 55,-12 129,-49 129,-64 0,-9 -72,-105 -83,-109 -4,-2 -7,-73 -7,-158 v -154 h 197 196 l 36,27 c 79,59 79,58 100,198 8,52 38,132 46,123 7,-8 34,-171 40,-240 l 7,-77 29,-6 29,-7 v -151 c 0,-84 4,-157 8,-163 4,-6 17,-16 29,-23 l 23,-12 v -72 -72 l 38,-17 c 21,-9 55,-20 75,-23 l 37,-7 v 351 351 h -22 c -13,0 -27,4 -33,8 -5,4 -10,26 -10,49 l -1,41 33,-5 32,-5 6,28 c 4,16 10,38 15,49 5,11 13,38 18,60 5,22 26,101 47,175 20,74 39,150 42,168 l 5,32 h 23 22 l 7,42 c 4,24 14,131 21,238 8,107 22,287 30,400 31,390 44,566 64,863 11,164 23,301 25,306 3,4 8,87 11,183 l 6,176 -10,7 c -6,3 -11,15 -11,26 v 19 h 25 25 v -25 c 0,-14 -4,-25 -10,-25 -5,0 -10,-13 -10,-30 v -30 h 13 12 l -14,-9 -14,-9 7,-54 c 7,-53 17,-176 56,-693 12,-148 27,-349 35,-445 8,-96 21,-260 29,-365 9,-104 22,-273 30,-375 8,-102 15,-186 15,-187 1,-2 12,-3 26,-3 h 25 l 2,68 1,67 8,-95 c 4,-52 14,-124 22,-160 8,-36 22,-103 31,-150 9,-47 21,-103 26,-125 5,-22 14,-66 21,-99 l 11,-58 27,4 27,4 -4,-27 -4,-27 17,-26 17,-26 h -41 -41 v -424 -424 l 115,-116 115,-116 h 370 370 v 180 180 h -10 c -5,0 -10,7 -10,15 0,8 5,15 10,15 h 10 v 231 230 l 25,37 25,37 v 33 34 l 25,30 c 14,16 25,38 25,49 v 19 h 20 c 11,0 20,4 20,9 0,5 6,16 13,23 7,7 19,45 26,83 7,39 21,117 31,175 11,58 26,139 34,180 7,41 21,115 29,164 9,48 18,91 21,94 8,7 12,-11 30,-113 9,-49 22,-121 30,-160 8,-38 22,-108 31,-155 9,-47 23,-119 32,-160 8,-41 18,-91 21,-110 l 7,-35 17,-3 16,-3 5,18 5,18 1,-28 c 0,-15 10,-45 21,-67 l 20,-39 v -59 -59 l 20,-18 19,-17 -14,-15 -15,-14 v -213 -212 l 11,-11 11,-11 -11,-20 -11,-21 1,-266 1,-265 h 22 c 13,0 30,8 39,18 l 17,19 v 75 75 l 21,27 c 26,33 69,56 104,56 40,0 89,-27 108,-59 l 17,-29 v -65 -64 l 25,-27 24,-26 h 118 c 205,0 358,-24 445,-68 l 33,-16 66,-4 c 83,-5 192,12 246,38 l 42,20 h 55 c 54,0 106,15 106,32 0,11 107,10 115,-2 3,-5 21,-17 41,-26 l 34,-16 30,12 c 16,7 36,23 45,36 l 15,23 v 51 50 h 15 15 v 24 25 l 20,6 c 10,3 35,3 54,0 l 34,-7 23,15 c 24,15 51,20 100,18 l 27,-1 5,-20 c 3,-11 1,-23 -4,-26 -5,-3 -9,-16 -9,-30 v -24 h 16 c 26,0 43,-26 58,-87 15,-65 38,-115 66,-143 30,-30 76,-50 113,-50 h 35 l 31,29 31,29 6,31 6,31 h 22 l 21,-1 25,-34 25,-34 42,-1 h 43 l 20,40 20,40 h 75 75 l 42,38 c 23,20 50,45 60,55 l 18,17 v 75 75 h 10 c 6,0 10,-9 10,-20 v -20 h 26 27 l -7,50 -7,50 h 21 c 12,0 28,-7 36,-15 9,-8 29,-15 45,-15 h 29 v -19 c 0,-17 18,-31 41,-31 5,0 9,14 9,31 v 31 l 14,-11 c 8,-7 18,-26 21,-43 l 7,-30 29,4 29,5 v -14 c 0,-7 5,-13 10,-13 6,0 10,-9 10,-19 0,-21 47,-66 79,-76 l 20,-6 -6,-15 -5,-15 17,-19 18,-20 h 29 28 v -59 -59 l 36,-28 c 21,-16 44,-36 53,-46 9,-9 30,-18 46,-20 l 30,-3 3,-53 3,-52 55,-55 54,-55 h 120 120 v 35 35 h -15 c -8,0 -15,5 -15,10 v 10 h 105 105 v -43 c 0,-24 5,-48 12,-55 l 12,-12 h 170 170 l 38,26 38,27 1,21 1,21 5,-12 c 7,-20 50,-15 71,8 l 20,20 10,-30 11,-31 h 16 16 l 25,55 25,55 h 15 14 l 2,53 2,52 3,-49 4,-49 32,-42 c 18,-24 41,-55 51,-70 11,-14 38,-35 60,-46 l 40,-19 h 48 49 l 27,17 c 15,10 31,23 35,30 l 8,13 h 94 95 v 25 25 h 15 15 v 80 80 h 110 110 v 10 c 0,6 9,10 20,10 11,0 20,-4 20,-10 v -10 h 55 55 V 981 871 l 28,-3 27,-3 3,-27 3,-28 h 25 24 v 38 39 l 28,24 c 15,14 48,39 74,57 l 47,32 58,1 c 32,0 74,6 93,13 l 35,13 6,59 6,59 1,-32 2,-33 h 12 c 6,0 23,14 38,30 l 27,31 13,-31 c 7,-16 16,-30 20,-30 4,0 20,-18 35,-40 l 28,-40 h 49 c 51,0 155,-25 173,-41 5,-5 17,-9 27,-9 h 18 v 69 69 l -35,22 c -19,12 -35,23 -35,26 0,2 48,31 106,65 l 105,62 -4,71 c -2,39 -7,80 -11,91 l -7,20 40,13 c 23,6 78,12 123,12 h 83 l 71,68 c 39,37 111,104 160,149 l 89,83 h 78 78 l 47,21 c 26,11 56,24 67,29 11,5 49,11 85,13 l 65,3 48,22 47,22 v 83 82 l 40,80 39,80 1,285 c 1,157 5,294 10,305 l 9,20 v -73 c 1,-41 5,-115 11,-165 5,-51 12,-140 16,-199 l 6,-108 h 46 c 26,0 63,-3 83,-6 l 37,-6 12,-38 c 7,-20 24,-50 39,-66 15,-16 31,-45 35,-64 15,-68 28,-176 28,-218 l -1,-43 34,-21 c 19,-11 35,-24 35,-29 0,-5 -11,-9 -25,-9 h -25 v -14 c 0,-8 5,-27 10,-42 13,-32 126,-179 164,-211 l 26,-23 h 93 94 l 13,-24 13,-25 -17,-16 c -9,-9 -16,-22 -16,-29 0,-21 77,-66 124,-72 l 44,-6 6,-21 5,-20 68,7 68,6 18,23 19,22 14,-20 c 8,-10 14,-29 14,-42 v -23 h 55 55 v 55 55 h 30 30 v -35 -35 h 50 50 v 50 50 h 10 c 6,0 10,-16 10,-35 v -35 h 25 25 v 50 50 h 135 135 l 20,40 20,39 v 45 c 0,25 -8,67 -18,94 l -19,48 11,9 c 6,6 38,24 71,40 33,17 62,32 65,35 3,3 20,13 38,23 55,28 198,105 234,125 18,10 57,31 86,47 l 52,28 v 125 125 l -17,19 -16,18 h 16 17 v 120 120 h -10 c -5,0 -10,11 -10,25 0,14 5,25 10,25 h 10 v 69 69 l -20,5 -20,5 v 26 26 h 20 20 v 50 50 h -15 -15 v 25 25 h 15 15 v 200 200 h -17 l -18,1 18,13 17,13 v 60 59 l 58,24 c 31,13 63,27 70,33 l 12,9 v 254 254 h 14 14 l 7,107 c 4,59 11,114 15,122 5,9 18,35 29,59 24,49 91,142 103,142 11,0 10,78 -1,82 -5,2 -13,15 -16,31 l -7,27 h 16 16 l 1,33 1,32 7,-30 6,-29 25,-13 25,-13 h -17 -18 v -15 c 0,-8 -4,-15 -10,-15 h -10 v -45 -45 h 16 c 9,0 39,-24 68,-53 l 53,-53 11,-46 c 7,-26 12,-72 12,-102 v -56 h 19 18 l 7,-72 c 4,-40 11,-74 16,-76 l 10,-4 v -254 -254 h 46 c 25,0 54,-5 65,-10 l 19,-11 v -54 -55 h 35 35 v 248 248 l 12,12 12,12 4,85 c 3,47 8,88 13,91 5,3 9,13 9,23 0,9 18,53 40,96 53,103 119,163 152,136 66,-53 87,-76 108,-118 l 24,-48 4,-98 c 3,-53 8,-97 13,-97 5,0 9,-22 9,-50 v -50 h 15 15 v -245 -245 h 60 60 v -49 c 0,-27 3,-56 6,-65 l 6,-16 h 24 c 13,0 24,-4 24,-10 0,-5 -9,-10 -20,-10 h -20 v -205 -205 h 20 c 11,0 20,-4 20,-10 0,-5 -9,-10 -20,-10 h -20 v -120 -120 h 140 c 139,0 233,7 470,37 240,29 266,32 342,32 l 77,1 4,-107 c 1,-60 4,1738 5,3995 l 2,4102 H 8500 0 Z M 15620,4451 c 0,-5 3,-16 6,-24 l 5,-15 -26,-6 -26,-7 -15,16 -15,15 h 10 c 6,0 11,7 11,15 v 15 h 25 c 14,0 25,-4 25,-9 z M 4180,3556 c 0,-7 -9,-16 -20,-19 l -20,-5 v 19 19 h 20 20 z m 8180,-591 c 0,-8 -7,-15 -15,-15 -8,0 -15,7 -15,15 0,8 7,15 15,15 8,0 15,-7 15,-15 z"
       id="path13080"
       style="fill:url(#linearGradient2322);fill-opacity:1"
       clip-path="url(#clipPath1053)"
       transform="translate(0,809.99988)" />
  </g>
  <g
     transform="matrix(0.1,0,0,-0.1,0,892.0125)"
     fill="#071f28"
     stroke="none"
     id="g13086"
     style="fill:#ffffff;fill-opacity:1">
    <path
       d="m 2510,5471 c 0,-17 5,-33 10,-36 14,-8 13,-42 -1,-47 l -12,-4 13,-20 12,-20 -11,-145 c -6,-79 -20,-268 -31,-419 -20,-272 -36,-486 -64,-855 -8,-104 -22,-282 -30,-395 -8,-113 -18,-224 -22,-247 l -7,-43 h -13 -14 v 75 75 h -9 -10 l -4,-107 -4,-108 -38,-135 c -20,-74 -43,-156 -49,-182 -6,-25 -14,-50 -19,-54 -4,-4 -7,-17 -7,-28 0,-12 -4,-27 -9,-34 l -8,-14 -39,11 c -21,6 -40,9 -42,7 -2,-3 4,-16 13,-30 l 17,-25 -7,-21 c -3,-11 -11,-20 -16,-20 -5,0 -9,-4 -9,-9 0,-6 20,-13 45,-17 l 45,-6 v -339 -339 l -27,6 c -16,4 -45,14 -65,23 l -38,16 v 72 72 l -22,12 c -13,7 -26,17 -30,23 -4,6 -8,79 -8,163 v 151 l -29,7 -29,6 -7,77 c -7,85 -33,229 -45,251 l -8,15 -22,-45 c -12,-24 -26,-71 -31,-104 -21,-140 -21,-139 -100,-198 l -36,-27 h -186 -187 v 144 c 0,79 3,146 8,148 9,4 92,113 92,121 0,16 -85,61 -137,72 -32,7 -92,21 -133,30 -121,28 -241,54 -303,66 l -57,11 -6,25 -6,24 32,41 33,40 -27,64 -26,64 v 104 c 0,186 -13,466 -22,466 h -8 v -288 -289 l -26,-29 c -14,-16 -32,-39 -41,-51 l -15,-22 12,-38 c 7,-21 16,-42 21,-47 5,-6 9,-23 9,-38 v -28 l -22,-4 c -13,-3 -48,-7 -78,-10 -30,-2 -136,-12 -235,-20 l -180,-17 -42,-16 c -24,-8 -47,-21 -53,-28 l -11,-13 45,-48 45,-49 1,-247 v -248 h -10 c -5,0 -19,4 -32,10 -13,5 -51,16 -85,24 L 0,2398 V 1199 0 h 8500 8500 v 1310 1310 l -87,-1 c -87,0 -111,-2 -353,-32 -235,-29 -331,-37 -460,-37 h -130 v 110 110 h 20 20 v 20 20 h -20 -20 v 195 195 h 20 20 v 20 20 h -24 -24 l -6,16 c -3,9 -6,38 -6,65 v 49 h -60 -60 v 245 245 h -15 -15 v 50 c 0,28 -4,50 -9,50 -5,0 -10,44 -13,98 l -4,97 -24,48 c -21,42 -43,66 -107,117 -7,6 -17,10 -23,10 h -10 v 35 35 h 16 17 l -7,33 c -4,17 -11,34 -16,35 -6,2 -10,10 -10,18 0,8 -4,14 -10,14 -5,0 -10,-7 -10,-15 0,-8 -7,-15 -15,-15 -8,0 -15,-7 -15,-15 0,-8 -4,-15 -10,-15 -5,0 -10,-5 -10,-11 0,-14 25,-39 39,-39 h 11 v -35 c 0,-19 -4,-35 -8,-35 -5,0 -23,-13 -40,-29 -34,-29 -112,-172 -112,-202 0,-10 -4,-20 -9,-23 -5,-3 -10,-44 -13,-91 l -4,-85 -12,-12 -12,-12 v -248 -248 h -25 -25 v 55 54 l -19,11 c -11,5 -40,10 -65,10 h -46 v 254 254 l -10,4 c -5,1 -12,36 -16,76 l -7,72 h -18 -19 v 56 c 0,30 -5,76 -12,102 l -11,46 -53,53 c -29,29 -59,53 -68,53 h -16 v 35 c 0,19 5,35 10,35 6,0 10,7 10,15 0,8 7,15 15,15 23,0 18,24 -7,35 l -23,10 -3,28 -3,27 h -15 -14 v -30 -30 h -16 -17 l 6,-37 c 4,-21 11,-39 17,-41 12,-4 14,-62 2,-62 -12,0 -79,-93 -103,-142 -11,-24 -24,-50 -29,-59 -4,-8 -11,-63 -15,-122 l -7,-107 h -14 -14 v -254 -254 l -12,-9 c -7,-6 -39,-20 -70,-33 l -58,-24 v -62 -62 l -15,-6 c -19,-7 -19,-36 0,-36 h 15 v -190 -190 h -15 -15 v -35 -35 h 15 15 v -40 -40 h -20 -20 v -36 -36 l 20,-5 20,-5 v -59 -59 h -10 c -5,0 -10,-16 -10,-35 0,-19 5,-35 10,-35 h 10 v -110 -110 h -15 c -19,0 -19,-24 0,-40 l 15,-12 v -118 -117 l -52,-28 c -29,-16 -68,-37 -86,-47 -36,-20 -179,-97 -234,-125 -18,-10 -35,-20 -38,-23 -3,-3 -32,-18 -65,-35 -33,-16 -66,-36 -73,-43 l -13,-12 20,-55 c 12,-31 21,-72 21,-91 0,-19 -9,-53 -20,-74 l -20,-40 h -135 -135 v -50 -50 h -15 -15 v 35 35 h -20 -20 v -50 -50 h -40 -40 v 35 35 h -40 -40 v -55 -55 h -45 -45 v 21 c 0,29 -18,59 -36,59 -9,0 -23,-9 -32,-19 l -17,-20 -58,-7 -58,-6 -5,20 -6,20 -44,6 c -24,3 -62,18 -84,32 -22,15 -40,28 -40,30 0,2 9,12 21,23 l 21,19 -18,31 -18,31 h -93 -93 l -26,23 c -38,32 -151,179 -164,211 -5,15 -10,29 -10,32 0,2 11,4 24,4 h 24 l 6,15 5,15 -36,23 -37,24 -2,44 c -2,47 -17,161 -30,219 -4,19 -20,48 -35,64 -15,16 -32,46 -39,66 l -12,38 -37,6 c -20,3 -57,6 -83,6 h -46 l -6,108 c -4,59 -11,152 -17,207 -6,55 -11,166 -12,247 l -2,148 h -22 -23 v -25 c 0,-14 4,-25 9,-25 h 8 l -5,-362 -4,-363 -39,-80 -39,-81 v -82 -82 l -47,-22 -48,-22 -65,-3 c -36,-2 -74,-8 -85,-13 -11,-5 -41,-18 -67,-29 l -47,-21 h -78 -78 l -89,-83 c -49,-45 -121,-112 -160,-149 l -71,-68 h -83 c -45,0 -101,-6 -123,-12 l -40,-13 6,-30 c 4,-16 9,-57 12,-91 l 5,-60 -108,-65 c -59,-35 -109,-68 -111,-74 -2,-5 15,-20 37,-33 l 40,-23 v -59 c 0,-58 -6,-70 -26,-51 -17,16 -121,41 -172,41 h -49 l -28,40 c -15,22 -31,40 -35,40 -4,0 -15,18 -25,40 l -18,41 -16,-24 c -9,-13 -24,-32 -33,-41 l -18,-17 v 30 31 h -15 -15 v -55 -55 l -27,-12 c -16,-6 -59,-13 -98,-16 l -70,-5 -45,-30 c -25,-17 -57,-42 -72,-56 l -28,-24 v -39 -38 h -14 -15 l -3,27 -3,28 -27,3 -28,3 v 110 109 h -55 -55 v 10 c 0,6 -13,10 -30,10 -16,0 -30,-4 -30,-10 v -10 h -110 -110 v -80 -80 h -15 -15 v -25 -25 h -95 -94 l -8,-13 c -4,-7 -20,-20 -35,-30 l -27,-17 h -39 c -48,0 -112,30 -138,65 -10,15 -34,47 -51,70 l -33,44 v 68 68 l -15,-29 c -8,-15 -15,-48 -15,-72 v -44 h -14 -15 l -25,-55 c -14,-30 -27,-55 -30,-55 -3,0 -12,16 -20,35 -8,19 -20,35 -25,35 -6,0 -11,-4 -11,-9 0,-14 -30,-41 -46,-41 -7,0 -16,11 -20,25 -9,36 -24,31 -24,-9 v -33 l -38,-27 -38,-26 h -160 -160 l -12,12 c -7,7 -12,31 -12,55 v 43 h -115 -115 v -20 -20 h 15 15 v -25 -25 h -110 -110 l -55,55 -55,56 v 44 c 0,24 -3,50 -6,59 l -6,16 -25,-6 -24,-6 -18,18 c -10,11 -34,32 -55,48 l -36,28 v 59 59 h -27 c -14,0 -35,7 -44,16 l -18,17 9,17 10,18 -24,6 c -35,9 -86,54 -86,77 0,10 -4,19 -10,19 -5,0 -10,7 -10,16 v 16 l -29,-7 -29,-6 -7,28 c -8,34 -23,53 -41,53 h -14 v -30 -29 l -14,5 c -8,3 -16,15 -18,27 l -3,22 -25,-3 -26,-3 -22,19 -22,19 -26,-5 -26,-5 6,-48 7,-49 h -16 -15 v 20 20 h -20 -20 v -75 -75 l -18,-17 c -10,-10 -37,-35 -60,-56 l -42,-37 h -75 -75 l -20,-40 -20,-40 h -33 l -32,1 -25,34 -25,34 -31,1 h -31 l -7,-31 -6,-31 -31,-29 -31,-29 h -25 c -28,0 -76,23 -103,50 -28,28 -51,78 -66,143 -15,61 -32,87 -58,87 -18,0 -21,21 -5,37 l 10,10 -7,27 -6,26 -27,2 c -51,3 -96,-3 -119,-18 l -23,-15 -19,6 c -11,4 -20,10 -20,14 0,5 -16,1 -35,-7 l -35,-16 v -23 -23 h -15 -15 v -52 -53 l -18,-21 c -9,-12 -27,-27 -38,-33 l -22,-11 -31,16 c -17,8 -33,19 -36,25 -8,11 -135,12 -135,1 0,-17 -52,-32 -106,-32 h -55 l -42,-20 c -53,-26 -163,-43 -236,-38 -31,2 -71,11 -89,20 -88,44 -240,68 -445,68 h -118 l -24,26 -25,27 v 64 65 l -17,29 c -32,54 -122,76 -183,44 -15,-8 -38,-27 -49,-41 l -21,-27 v -77 -77 l -18,-16 c -10,-10 -24,-17 -30,-17 h -12 v 53 c 0,29 5,58 11,64 l 11,11 -11,20 -11,21 v 175 175 l 16,16 16,16 -16,24 -16,24 v 200 200 l 15,15 c 20,19 19,29 -5,51 l -20,18 v 59 59 l -17,32 c -9,18 -19,47 -22,66 -3,19 -12,36 -19,39 l -12,4 v -22 c 0,-32 -17,-15 -23,22 -3,18 -12,67 -20,108 -9,41 -23,113 -32,160 -9,47 -23,114 -30,150 -47,231 -59,305 -62,383 l -4,87 h 15 16 v 25 25 h -30 -30 v -30 -30 h 11 11 l -5,-97 c -3,-54 -12,-132 -20,-173 -23,-112 -46,-232 -67,-350 -10,-58 -24,-136 -31,-175 -7,-38 -19,-76 -26,-83 -7,-7 -13,-18 -13,-23 0,-5 -4,-9 -10,-9 -5,0 -10,16 -10,35 0,19 -4,35 -10,35 h -10 v -54 -54 l -25,-30 -25,-30 v -34 -33 l -25,-37 -25,-37 v -230 -231 h -10 c -5,0 -10,-11 -10,-25 0,-14 5,-25 10,-25 h 10 v -170 -170 h -360 -360 l -115,116 -115,116 v 414 414 h 46 45 l -22,40 -22,40 12,26 c 6,15 10,28 8,31 -3,2 -16,-2 -31,-8 -14,-7 -28,-10 -31,-7 -5,5 -10,29 -55,253 -11,55 -27,132 -36,170 -9,39 -18,112 -21,163 l -5,92 h -14 -14 v -65 -65 h -15 c -8,0 -15,1 -16,3 0,1 -7,85 -15,187 -8,102 -21,271 -30,375 -8,105 -21,269 -29,365 -8,96 -23,297 -35,445 -43,571 -49,641 -56,688 l -7,47 h 12 c 6,0 11,7 11,15 0,8 -4,15 -10,15 -5,0 -10,9 -10,20 0,11 5,20 10,20 6,0 10,16 10,35 v 35 h -35 -35 z"
       id="path13084"
       style="fill:#ffffff;fill-opacity:1" />
  </g>
</svg>
