<?xml version="1.0" encoding="UTF-8" standalone="no"?>
<svg
   width="378"
   height="378"
   overflow="hidden"
   version="1.1"
   id="svg74"
   sodipodi:docname="logo.svg"
   inkscape:version="1.2.2 (b0a8486541, 2022-12-01)"
   xmlns:inkscape="http://www.inkscape.org/namespaces/inkscape"
   xmlns:sodipodi="http://sodipodi.sourceforge.net/DTD/sodipodi-0.dtd"
   xmlns="http://www.w3.org/2000/svg"
   xmlns:svg="http://www.w3.org/2000/svg">
  <defs
     id="defs78" />
  <sodipodi:namedview
     id="namedview76"
     pagecolor="#ffffff"
     bordercolor="#000000"
     borderopacity="0.25"
     inkscape:showpageshadow="2"
     inkscape:pageopacity="0.0"
     inkscape:pagecheckerboard="0"
     inkscape:deskcolor="#d1d1d1"
     showgrid="false"
     inkscape:zoom="7.9711268"
     inkscape:cx="171.74485"
     inkscape:cy="220.92234"
     inkscape:window-width="1920"
     inkscape:window-height="1004"
     inkscape:window-x="0"
     inkscape:window-y="0"
     inkscape:window-maximized="1"
     inkscape:current-layer="g72" />
  <g
     id="g72">
    <rect
       x="-24"
       y="-15.688589"
       width="425.5329"
       height="409.6886"
       fill="#ffffff"
       fill-opacity="0"
       id="rect56"
       style="stroke-width:1.10459" />
    <path
       d="m 33.413167,189.15571 c 0,-82.60428 69.554363,-149.568855 155.353273,-149.568855 85.79891,0 155.35328,66.964575 155.35328,149.568855 0,82.60427 -69.55437,149.56885 -155.35328,149.56885 -85.79891,0 -155.353273,-66.96458 -155.353273,-149.56885 z"
       fill="#4472c4"
       fill-rule="evenodd"
       id="path58"
       style="stroke-width:1.10459" />
    <path
       d="m 67.185618,189.15571 c 0,-40.10505 33.769072,-72.61677 75.425142,-72.61677 h 55.16167 c 41.65607,0 75.42514,32.51172 75.42514,72.61677 v 0 c 0,40.10504 -33.76907,72.61676 -75.42514,72.61676 h -55.16167 c -41.65607,0 -75.425142,-32.51172 -75.425142,-72.61676 z"
       stroke="#ffffff"
       stroke-width="10.3333"
       stroke-miterlimit="8"
       fill="#4472c4"
       fill-rule="evenodd"
       id="path60" />
    <path
       d="m 134.73052,189.15571 c 0,-16.76039 14.11238,-30.34731 31.52095,-30.34731 h 24.76647 c 17.40857,0 31.52095,13.58692 31.52095,30.34731 v 0 c 0,16.76038 -14.11238,30.3473 -31.52095,30.3473 h -24.76647 c -17.40857,0 -31.52095,-13.58692 -31.52095,-30.3473 z"
       stroke="#ffffff"
       stroke-width="10.3333"
       stroke-miterlimit="8"
       fill="#4472c4"
       fill-rule="evenodd"
       id="path62" />
    <rect
       x="121.22154"
       y="116.53895"
       width="54.035923"
       height="145.23352"
       stroke="#ffffff"
       stroke-width="10.3333"
       stroke-miterlimit="8"
       fill="#4472c4"
       id="rect64" />
    <rect
       x="148.2395"
       y="121.7072"
       width="32.722256"
       height="31.932945"
       fill="#4472c4"
       id="rect66"
       style="stroke-width:0.904927" />
    <rect
       x="64.93412"
       y="104.61679"
       width="51.271358"
       height="171.2455"
       fill="#4472c4"
       id="rect68"
       style="stroke-width:1.1238" />
    <rect
       x="50.299393"
       y="153.38924"
       width="58.538914"
       height="85.622749"
       fill="#4472c4"
       id="rect70"
       style="stroke-width:1.10459" />
  </g>
</svg>
